<svg xmlns="http://www.w3.org/2000/svg" width="1000" height="650" viewBox="0 0 1000 650">
<rect width="100%" height="100%" fill="white"/>
<style>text{font-family:DejaVu Sans,Arial,sans-serif;fill:#1f2937}.axis{stroke:#374151;stroke-width:1.5}.grid{stroke:#d1d5db;stroke-width:1}.err{fill:none;stroke:#b91c1c;stroke-width:3}.cyc{fill:none;stroke:#1d4ed8;stroke-width:3;stroke-dasharray:9 6}</style>
<text x="500" y="31" font-size="22" text-anchor="middle">[[22,2,6]] full two-logical RUS teleportation</text>
<text x="500" y="54" font-size="15" text-anchor="middle">p=10^-3, adaptive M in {1,3}, 1,000,000 trajectories per point</text>
<line class="grid" x1="110" y1="560.00" x2="900" y2="560.00"/>
<text x="98" y="565.00" font-size="14" text-anchor="end">1e-04</text>
<line class="grid" x1="110" y1="401.73" x2="900" y2="401.73"/>
<text x="98" y="406.73" font-size="14" text-anchor="end">3e-04</text>
<line class="grid" x1="110" y1="228.27" x2="900" y2="228.27"/>
<text x="98" y="233.27" font-size="14" text-anchor="end">1e-03</text>
<line class="grid" x1="110" y1="70.00" x2="900" y2="70.00"/>
<text x="98" y="75.00" font-size="14" text-anchor="end">3e-03</text>
<text x="912" y="565.00" font-size="14">0</text>
<text x="912" y="442.50" font-size="14">6</text>
<text x="912" y="320.00" font-size="14">12</text>
<text x="912" y="197.50" font-size="14">18</text>
<text x="912" y="75.00" font-size="14">24</text>
<line class="grid" x1="110.00" y1="70" x2="110.00" y2="560"/>
<text x="110.00" y="587" font-size="14" text-anchor="middle">pi/128</text>
<line class="grid" x1="307.50" y1="70" x2="307.50" y2="560"/>
<text x="307.50" y="587" font-size="14" text-anchor="middle">pi/64</text>
<line class="grid" x1="505.00" y1="70" x2="505.00" y2="560"/>
<text x="505.00" y="587" font-size="14" text-anchor="middle">pi/32</text>
<line class="grid" x1="702.50" y1="70" x2="702.50" y2="560"/>
<text x="702.50" y="587" font-size="14" text-anchor="middle">pi/16</text>
<line class="grid" x1="900.00" y1="70" x2="900.00" y2="560"/>
<text x="900.00" y="587" font-size="14" text-anchor="middle">pi/8</text>
<line class="axis" x1="110" y1="560" x2="900" y2="560"/>
<line class="axis" x1="110" y1="70" x2="110" y2="560"/>
<line class="axis" x1="900" y1="70" x2="900" y2="560"/>
<text x="505.00" y="623" font-size="17" text-anchor="middle">Initial target angle</text>
<text x="28" y="315.00" font-size="17" text-anchor="middle" transform="rotate(-90 28 315.00)">Any-logical error rate</text>
<text x="976" y="315.00" font-size="17" text-anchor="middle" transform="rotate(90 976 315.00)">Expected syndrome cycles</text>
<polyline class="err" points="110.00,433.27 307.50,346.88 505.00,267.81 702.50,181.14 900.00,139.88"/>
<polyline class="cyc" points="110.00,302.68 307.50,261.85 505.00,205.73 702.50,138.97 900.00,116.66"/>
<line x1="110.00" y1="442.87" x2="110.00" y2="424.28" stroke="#b91c1c" stroke-width="1.5"/>
<circle cx="110.00" cy="433.27" r="4.5" fill="#b91c1c"/>
<circle cx="110.00" cy="302.68" r="4.5" fill="#1d4ed8"/>
<line x1="307.50" y1="353.92" x2="307.50" y2="340.16" stroke="#b91c1c" stroke-width="1.5"/>
<circle cx="307.50" cy="346.88" r="4.5" fill="#b91c1c"/>
<circle cx="307.50" cy="261.85" r="4.5" fill="#1d4ed8"/>
<line x1="505.00" y1="273.13" x2="505.00" y2="262.68" stroke="#b91c1c" stroke-width="1.5"/>
<circle cx="505.00" cy="267.81" r="4.5" fill="#b91c1c"/>
<circle cx="505.00" cy="205.73" r="4.5" fill="#1d4ed8"/>
<line x1="702.50" y1="185.06" x2="702.50" y2="177.33" stroke="#b91c1c" stroke-width="1.5"/>
<circle cx="702.50" cy="181.14" r="4.5" fill="#b91c1c"/>
<circle cx="702.50" cy="138.97" r="4.5" fill="#1d4ed8"/>
<line x1="900.00" y1="143.27" x2="900.00" y2="136.57" stroke="#b91c1c" stroke-width="1.5"/>
<circle cx="900.00" cy="139.88" r="4.5" fill="#b91c1c"/>
<circle cx="900.00" cy="116.66" r="4.5" fill="#1d4ed8"/>
<line x1="130" y1="95" x2="175" y2="95" class="err"/>
<text x="185" y="100" font-size="15">Any-logical error (+/-1 s.e.)</text>
<line x1="130" y1="120" x2="175" y2="120" class="cyc"/>
<text x="185" y="125" font-size="15">Expected syndrome cycles</text>
</svg>
